<svg id="Layer_1" data-name="Layer 1" xmlns="http://www.w3.org/2000/svg"
viewBox="0 50 981.94 150.57"><defs><style>.cls-1{fill:#f57c00;}.cls-2{fill:#e65100;}.cls-3{fill:#0d47a1;}.cls-4{fill:#5f6368;}</style></defs><title>OpenFermion_Logo_Color</title><polygon class="cls-1" points="174.53 151.99 174.54 151.99 174.53 151.98 174.53 151.99"/><polygon class="cls-2" points="174.53 100.75 174.54 100.75 174.53 100.76 174.53 100.75"/><polygon class="cls-2" points="174.53 105.67 174.53 105.68 174.54 105.67 174.53 105.67"/><polygon class="cls-2" points="188.46 113.86 167.54 126.02 153.42 126.02 163.52 108.55 179.34 108.55 188.46 113.86"/><polygon class="cls-2" points="112.31 126.02 98.19 126.02 77.27 113.86 86.38 108.55 102.21 108.55 112.31 126.02"/><polygon class="cls-3" points="136.21 109.22 150.65 84.28 143.3 71.58 122.43 71.58 115.08 84.28 139.26 126.02 119.06 126.02 94.88 84.28 112.3 54.1 153.43 54.1 170.85 84.28 146.3 126.66 136.21 109.22"/><polygon class="cls-1" points="169.09 131.79 96.65 131.79 75.11 119.25 75.11 136.73 96.65 149.27 169.09 149.27 190.62 136.73 190.62 119.25 169.09 131.79"/><polygon class="cls-3" points="141.55 155.04 150.65 170.75 143.3 183.45 122.43 183.45 115.08 170.75 124.18 155.04 103.98 155.04 94.88 170.75 112.3 200.93 153.43 200.93 170.85 170.75 161.75 155.04 141.55 155.04"/><path class="cls-4" d="M253,122.12A40.58,40.58,0,0,1,256,106.4a34.52,34.52,0,0,1,8.09-11.93,35.83,35.83,0,0,1,12.29-7.58,44,44,0,0,1,15.52-2.66,44.69,44.69,0,0,1,15.67,2.66,36.31,36.31,0,0,1,12.39,7.58,34.19,34.19,0,0,1,8.14,11.93A40.58,40.58,0,0,1,331,122.12a40,40,0,0,1-2.92,15.52,35.78,35.78,0,0,1-8.14,12.08,37,37,0,0,1-12.39,7.89,42.5,42.5,0,0,1-15.67,2.82,41.81,41.81,0,0,1-15.52-2.82,36.52,36.52,0,0,1-12.29-7.89A36.14,36.14,0,0,1,256,137.64,40,40,0,0,1,253,122.12Zm14,0a30.73,30.73,0,0,0,1.79,10.7,24.9,24.9,0,0,0,5.12,8.45,23.48,23.48,0,0,0,7.89,5.58,24.85,24.85,0,0,0,10.09,2,25.22,25.22,0,0,0,10.14-2,23.37,23.37,0,0,0,7.94-5.58,25,25,0,0,0,5.12-8.45,30.76,30.76,0,0,0,1.79-10.7,29.74,29.74,0,0,0-1.79-10.45,25.51,25.51,0,0,0-5.07-8.4,23.47,23.47,0,0,0-7.89-5.63,25,25,0,0,0-10.24-2,24.59,24.59,0,0,0-10.19,2,23.59,23.59,0,0,0-7.83,5.63,25.45,25.45,0,0,0-5.07,8.4A29.7,29.7,0,0,0,267.08,122.12Z"/><path class="cls-4" d="M354.64,109.42v6.86h.31a17.84,17.84,0,0,1,2.41-2.92A15.91,15.91,0,0,1,361,110.7a23.4,23.4,0,0,1,4.86-1.95,22.38,22.38,0,0,1,6.09-.77,22.93,22.93,0,0,1,17.21,7.48,24.8,24.8,0,0,1,4.92,8.19,29,29,0,0,1,1.74,10.14A30.25,30.25,0,0,1,394.12,144a25,25,0,0,1-4.81,8.29,23.16,23.16,0,0,1-7.58,5.63,23.41,23.41,0,0,1-10.09,2.1,21.32,21.32,0,0,1-9.58-2.15,16.29,16.29,0,0,1-6.71-5.84h-.21v31.13H342.86V109.42Zm28.68,24.37a19.2,19.2,0,0,0-.87-5.68,15.92,15.92,0,0,0-2.61-5.07,13.14,13.14,0,0,0-4.4-3.64,13.38,13.38,0,0,0-6.25-1.38,12.55,12.55,0,0,0-6,1.43,15.5,15.5,0,0,0-4.56,3.69,15.71,15.71,0,0,0-2.87,5.12,17.74,17.74,0,0,0-1,5.74,17.28,17.28,0,0,0,1,5.68,15.79,15.79,0,0,0,2.87,5.07,14.78,14.78,0,0,0,4.56,3.64,14.11,14.11,0,0,0,12.29-.05,13.67,13.67,0,0,0,4.4-3.69,15.81,15.81,0,0,0,2.61-5.12A19.69,19.69,0,0,0,383.32,133.8Z"/><path class="cls-4" d="M454.6,134.61v1.64a13.45,13.45,0,0,1-.1,1.64H417.11a12.14,12.14,0,0,0,1.38,4.86,12.34,12.34,0,0,0,3.12,3.79,15.52,15.52,0,0,0,4.4,2.51,14.47,14.47,0,0,0,5.12.92,16.39,16.39,0,0,0,7.78-1.69,14.59,14.59,0,0,0,5.22-4.66l8.19,6.55q-7.27,9.83-21.1,9.83a30,30,0,0,1-10.55-1.79,24.85,24.85,0,0,1-8.35-5.07,22.85,22.85,0,0,1-5.53-8,27.7,27.7,0,0,1-2-10.8,28.2,28.2,0,0,1,2-10.8,24.05,24.05,0,0,1,13.72-13.62A27.6,27.6,0,0,1,430.84,108a26,26,0,0,1,9.47,1.69,20.57,20.57,0,0,1,7.53,5,23.3,23.3,0,0,1,5,8.29A34.26,34.26,0,0,1,454.6,134.61Zm-12.29-5.53a15.17,15.17,0,0,0-.67-4.51,10.05,10.05,0,0,0-5.74-6.4,12.73,12.73,0,0,0-5.17-1,13.82,13.82,0,0,0-9.37,3.33,12.13,12.13,0,0,0-4.25,8.55Z"/><path class="cls-4" d="M466.48,109.42h11.67v7.89h.21a15.87,15.87,0,0,1,5.68-6.5,16.34,16.34,0,0,1,9.58-2.82,18.51,18.51,0,0,1,8.24,1.69,16.28,16.28,0,0,1,5.63,4.46,18.06,18.06,0,0,1,3.23,6.35,26.76,26.76,0,0,1,1,7.37v30.72H499.45V131.34a35,35,0,0,0-.31-4.51,12.2,12.2,0,0,0-1.33-4.25,8.84,8.84,0,0,0-2.82-3.12,8.28,8.28,0,0,0-4.76-1.23,10.52,10.52,0,0,0-5.12,1.18,10.87,10.87,0,0,0-3.53,3,13.37,13.37,0,0,0-2.1,4.25,16.93,16.93,0,0,0-.72,4.86v27H466.48Z"/><path class="cls-4" d="M526.69,86.07h46.8V97.34H539.6V117.2h32v10.86h-32v30.52h-12.9Z"/><path class="cls-4" d="M626.75,134.61v1.64a13.35,13.35,0,0,1-.1,1.64H589.27a12.13,12.13,0,0,0,1.38,4.86,12.33,12.33,0,0,0,3.12,3.79,15.51,15.51,0,0,0,4.4,2.51,14.46,14.46,0,0,0,5.12.92,16.39,16.39,0,0,0,7.78-1.69,14.59,14.59,0,0,0,5.22-4.66l8.19,6.55Q617.23,160,603.4,160a30,30,0,0,1-10.55-1.79,24.85,24.85,0,0,1-8.35-5.07,22.86,22.86,0,0,1-5.53-8,27.71,27.71,0,0,1-2-10.8,28.21,28.21,0,0,1,2-10.8,24.06,24.06,0,0,1,13.72-13.62A27.6,27.6,0,0,1,603,108a26,26,0,0,1,9.47,1.69,20.57,20.57,0,0,1,7.53,5,23.31,23.31,0,0,1,5,8.29A34.24,34.24,0,0,1,626.75,134.61Zm-12.29-5.53a15.17,15.17,0,0,0-.67-4.51,10,10,0,0,0-5.73-6.4,12.74,12.74,0,0,0-5.17-1,13.82,13.82,0,0,0-9.37,3.33,12.13,12.13,0,0,0-4.25,8.55Z"/><path class="cls-4" d="M638.63,109.42h11.78v8.19h.21a17.92,17.92,0,0,1,5.73-7A14.31,14.31,0,0,1,665,108q.71,0,1.54.05a5.76,5.76,0,0,1,1.43.26v11.27a17.16,17.16,0,0,0-2.1-.41,14.68,14.68,0,0,0-1.69-.1,13,13,0,0,0-6.76,1.54,12.28,12.28,0,0,0-4,3.69,13.18,13.18,0,0,0-1.95,4.4,17.05,17.05,0,0,0-.51,3.58v26.32H638.63Z"/><path class="cls-4" d="M734.59,108a18.51,18.51,0,0,1,8.24,1.69,16.26,16.26,0,0,1,5.63,4.46,18,18,0,0,1,3.23,6.35,26.76,26.76,0,0,1,1,7.37v30.72H740.43V131.34a34.84,34.84,0,0,0-.31-4.51,12.2,12.2,0,0,0-1.33-4.25,8.86,8.86,0,0,0-2.82-3.12,8.28,8.28,0,0,0-4.76-1.23,9.38,9.38,0,0,0-4.92,1.23,10.72,10.72,0,0,0-3.38,3.17A13.57,13.57,0,0,0,721,127a19.18,19.18,0,0,0-.61,4.76v26.83H708.07v-29.7a12.62,12.62,0,0,0-2.2-7.63q-2.2-3-6.91-3a9.5,9.5,0,0,0-4.81,1.18,10.12,10.12,0,0,0-3.33,3,13.83,13.83,0,0,0-1.95,4.25,18.11,18.11,0,0,0-.67,4.86v27H675.91V109.42h11.67v7.89h.21a14.61,14.61,0,0,1,2.2-3.48,17.25,17.25,0,0,1,3.28-3,15.64,15.64,0,0,1,4.35-2.1A18.14,18.14,0,0,1,703,108a16.66,16.66,0,0,1,9.52,2.56,17,17,0,0,1,5.84,6.76,17.56,17.56,0,0,1,6.55-6.91A18.66,18.66,0,0,1,734.59,108Z"/><path class="cls-4" d="M765.52,92.73a7.08,7.08,0,0,1,2.2-5.17,7.57,7.57,0,0,1,5.58-2.2,8.13,8.13,0,0,1,5.68,2.1A7.19,7.19,0,0,1,779,98a8.12,8.12,0,0,1-5.68,2.1,7.56,7.56,0,0,1-5.58-2.2A7.07,7.07,0,0,1,765.52,92.73Zm1.74,16.69h12.29v49.16H767.26Z"/><path class="cls-4" d="M791.63,133.8a26,26,0,0,1,2.1-10.6,24.74,24.74,0,0,1,5.68-8.14,25.06,25.06,0,0,1,8.5-5.22,30.53,30.53,0,0,1,20.89,0,25.08,25.08,0,0,1,8.5,5.22A24.81,24.81,0,0,1,843,123.2a26,26,0,0,1,2.1,10.6,26.38,26.38,0,0,1-2.1,10.65,25.24,25.24,0,0,1-5.68,8.24,26,26,0,0,1-8.5,5.38,29,29,0,0,1-20.89,0,25.93,25.93,0,0,1-8.5-5.38,25.16,25.16,0,0,1-5.68-8.24A26.35,26.35,0,0,1,791.63,133.8Zm12.5,0a19.63,19.63,0,0,0,.87,5.74,15.75,15.75,0,0,0,2.61,5.12,13.64,13.64,0,0,0,4.4,3.69,14.78,14.78,0,0,0,12.7,0,13.68,13.68,0,0,0,4.4-3.69,15.79,15.79,0,0,0,2.61-5.12,19.66,19.66,0,0,0,.87-5.74,19.17,19.17,0,0,0-.87-5.68,15.9,15.9,0,0,0-2.61-5.07,13.15,13.15,0,0,0-4.4-3.64,15.27,15.27,0,0,0-12.7,0,13.12,13.12,0,0,0-4.4,3.64,15.86,15.86,0,0,0-2.61,5.07A19.14,19.14,0,0,0,804.13,133.8Z"/><path class="cls-4" d="M857,109.42h11.67v7.89h.21a15.87,15.87,0,0,1,5.68-6.5,16.34,16.34,0,0,1,9.58-2.82,18.51,18.51,0,0,1,8.24,1.69,16.28,16.28,0,0,1,5.63,4.46,18.06,18.06,0,0,1,3.23,6.35,26.76,26.76,0,0,1,1,7.37v30.72H889.95V131.34a35,35,0,0,0-.31-4.51,12.2,12.2,0,0,0-1.33-4.25,8.84,8.84,0,0,0-2.82-3.12,8.28,8.28,0,0,0-4.76-1.23,10.52,10.52,0,0,0-5.12,1.18,10.87,10.87,0,0,0-3.53,3,13.37,13.37,0,0,0-2.1,4.25,16.93,16.93,0,0,0-.72,4.86v27H857Z"/></svg>
