<?xml version="1.0" encoding="iso-8859-1"?>
<!-- Generator: Adobe Illustrator 22.0.1, SVG Export Plug-In . SVG Version: 6.00 Build 0)  -->
<svg version="1.1" id="Layer_1" xmlns="http://www.w3.org/2000/svg" xmlns:xlink="http://www.w3.org/1999/xlink" x="0px" y="0px" width="375" height="250"
	 viewBox="0 0 234.72 128.88" style="enable-background:new 0 0 234.72 128.88;" xml:space="preserve">
<g>
	<path d="M51.316,36.484c0,5.801-1.45,10.311-4.351,13.528c-2.901,3.218-7.008,4.826-12.322,4.826c-5.379,0-9.51-1.597-12.395-4.79
		s-4.327-7.731-4.327-13.614s1.45-10.4,4.351-13.553s7.04-4.729,12.419-4.729c5.298,0,9.393,1.601,12.285,4.802
		S51.316,30.667,51.316,36.484z M24.113,36.484c0,4.388,0.886,7.715,2.657,9.982c1.771,2.267,4.396,3.4,7.873,3.4
		c3.461,0,6.074-1.121,7.837-3.364s2.645-5.582,2.645-10.018c0-4.371-0.873-7.686-2.62-9.945s-4.351-3.388-7.812-3.388
		c-3.494,0-6.13,1.129-7.91,3.388C25.002,28.798,24.113,32.113,24.113,36.484z"/>
	<path d="M71.536,54.839c-3.413,0-6.061-1.227-7.946-3.681h-0.341c0.228,2.275,0.341,3.656,0.341,4.144v11.042h-5.728V27.392h4.631
		c0.13,0.504,0.398,1.706,0.804,3.608h0.293c1.788-2.73,4.469-4.095,8.044-4.095c3.364,0,5.984,1.219,7.861,3.656
		c1.877,2.438,2.815,5.858,2.815,10.262s-0.955,7.841-2.864,10.311C77.536,53.604,74.899,54.839,71.536,54.839z M70.146,31.585
		c-2.275,0-3.937,0.666-4.985,1.999c-1.048,1.333-1.572,3.461-1.572,6.386v0.853c0,3.283,0.52,5.659,1.56,7.13
		c1.04,1.471,2.738,2.206,5.094,2.206c1.983,0,3.51-0.813,4.583-2.438s1.609-3.941,1.609-6.947c0-3.023-0.532-5.31-1.597-6.862
		C73.774,32.361,72.21,31.585,70.146,31.585z"/>
	<path d="M100.737,54.839c-4.193,0-7.471-1.223-9.835-3.669c-2.364-2.446-3.547-5.814-3.547-10.104
		c0-4.404,1.097-7.865,3.291-10.384c2.194-2.519,5.208-3.778,9.043-3.778c3.559,0,6.37,1.081,8.434,3.242s3.096,5.135,3.096,8.921
		v3.096H93.254c0.081,2.616,0.788,4.627,2.121,6.033c1.333,1.406,3.209,2.108,5.631,2.108c1.593,0,3.075-0.15,4.449-0.451
		c1.373-0.301,2.848-0.8,4.424-1.499v4.656c-1.398,0.666-2.811,1.138-4.241,1.414C104.207,54.701,102.574,54.839,100.737,54.839z
		 M99.689,31.244c-1.82,0-3.278,0.577-4.375,1.731c-1.097,1.154-1.751,2.836-1.962,5.046h12.236
		c-0.033-2.226-0.569-3.912-1.609-5.058C102.939,31.817,101.509,31.244,99.689,31.244z"/>
	<path d="M150.181,54.352h-5.753V37.776c0-2.08-0.418-3.632-1.255-4.656c-0.837-1.024-2.165-1.536-3.985-1.536
		c-2.421,0-4.193,0.715-5.314,2.145c-1.121,1.43-1.682,3.827-1.682,7.191v13.431h-5.728V27.392h4.485l0.804,3.534h0.293
		c0.813-1.284,1.966-2.275,3.461-2.974s3.153-1.048,4.973-1.048c6.468,0,9.701,3.291,9.701,9.872V54.352z"/>
	<g>
		<path id="g3-106_10_" d="M119.509,19.658c0-0.835,0-1.67-0.928-1.67s-0.928,0.835-0.928,1.67v43.063c0,0.835,0,1.671,0.928,1.671
			s0.928-0.835,0.928-1.671V19.658z"/>
	</g>
	<g>
		<path d="M206.087,19.658c0.232-0.51,0.232-0.603,0.232-0.742c0-0.51-0.418-0.928-0.928-0.928s-0.789,0.278-1.067,1.067
			l-7.305,19.203c-0.09,0.002-0.176,0.017-0.263,0.027c-0.644-1.558-1.429-3.042-2.847-2.573c-0.887,0.296-1.443,1.484-2.43,3.735
			c-0.428,0.976-1.187,2.707-1.669,3.233c-0.414-0.505-1.038-2.014-1.429-2.958c-0.979-2.367-1.803-4.209-3.121-4.217
			c-1.341,0.019-2.113,1.88-3.089,4.238c-0.404,0.977-1.051,2.539-1.483,3.056c-0.43-0.518-1.073-2.075-1.476-3.049
			c-0.986-2.388-1.765-4.273-3.131-4.273c-0.001,0-0.002,0-0.004,0c-1.365,0.004-2.151,1.897-3.146,4.293
			c-0.41,0.989-1.07,2.576-1.501,3.075c-0.503-0.518-1.308-2.347-1.76-3.374c-0.995-2.261-1.555-3.456-2.425-3.774
			c-1.468-0.534-2.24,1-2.877,2.583c-0.093-0.009-0.182-0.028-0.277-0.028c-0.003,0-0.006,0.001-0.009,0.001l-7.303-19.197
			c-0.278-0.789-0.557-1.067-1.067-1.067s-0.928,0.418-0.928,0.928c0,0.139,0,0.232,0.232,0.742l7.324,19.2
			c-0.688,0.529-1.14,1.352-1.14,2.285c0,0.945,0.462,1.777,1.164,2.305l-7.348,19.18c-0.232,0.51-0.232,0.603-0.232,0.835
			c0,0.51,0.418,0.928,0.928,0.928c0.603,0,0.789-0.464,0.974-0.928l7.428-19.431c1.584-0.013,2.869-1.303,2.869-2.889
			c0-0.859-0.383-1.622-0.979-2.152c0.222-0.554,0.492-1.181,0.712-1.482c0.365,0.502,0.93,1.788,1.323,2.68
			c1.235,2.804,2.063,4.529,3.407,4.529c0.009,0,0.019,0,0.029,0c1.342-0.024,2.119-1.896,3.103-4.265
			c0.41-0.988,1.067-2.568,1.503-3.085c0.432,0.516,1.079,2.082,1.484,3.062c0.983,2.379,1.758,4.258,3.118,4.263
			c0.002,0,0.003,0,0.005,0c1.364,0,2.144-1.884,3.132-4.267c0.399-0.964,1.036-2.502,1.463-3.023
			c0.425,0.517,1.057,2.044,1.452,3.001c0.994,2.402,1.712,4.138,3.032,4.162c1.356,0.031,2.261-1.928,3.346-4.403
			c0.398-0.907,0.977-2.227,1.27-2.649c0.226,0.287,0.512,0.932,0.75,1.511c-0.574,0.529-0.94,1.28-0.94,2.12
			c0,1.561,1.245,2.829,2.794,2.882l7.431,19.439c0.186,0.464,0.371,0.928,0.974,0.928c0.51,0,0.928-0.418,0.928-0.928
			c0-0.232,0-0.325-0.232-0.835l-7.331-19.135c0.735-0.525,1.219-1.38,1.219-2.35c0-0.959-0.474-1.804-1.195-2.331L206.087,19.658z"
			/>
	</g>
	<path d="M25.453,110.405h-5.777V74.768h20.11v4.924H25.453v11.14h13.431v4.948H25.453V110.405z"/>
	<path style="fill:#FF9800;" d="M56.91,110.892c-4.193,0-7.471-1.223-9.835-3.669c-2.364-2.446-3.547-5.813-3.547-10.103
		c0-4.404,1.097-7.865,3.291-10.384c2.194-2.519,5.208-3.778,9.043-3.778c3.559,0,6.37,1.081,8.434,3.242
		c2.064,2.161,3.096,5.135,3.096,8.921v3.096H49.427c0.081,2.616,0.788,4.627,2.121,6.032c1.333,1.406,3.209,2.109,5.631,2.109
		c1.593,0,3.075-0.151,4.449-0.452c1.373-0.301,2.848-0.8,4.424-1.499v4.656c-1.398,0.666-2.811,1.138-4.241,1.414
		C60.38,110.754,58.747,110.892,56.91,110.892z M55.862,87.297c-1.82,0-3.278,0.577-4.375,1.731s-1.751,2.836-1.962,5.046h12.236
		c-0.033-2.226-0.569-3.913-1.609-5.058C59.112,87.869,57.682,87.297,55.862,87.297z"/>
	<path d="M86.076,82.958c1.154,0,2.104,0.081,2.852,0.244l-0.561,5.338c-0.813-0.195-1.658-0.293-2.535-0.293
		c-2.291,0-4.148,0.748-5.57,2.243c-1.422,1.495-2.133,3.437-2.133,5.826v14.089h-5.728V83.445h4.485l0.756,4.753h0.293
		c0.894-1.609,2.06-2.884,3.498-3.827C82.87,83.429,84.418,82.958,86.076,82.958z"/>
	<path d="M116.143,110.405h-5.753V93.781c0-2.064-0.39-3.604-1.17-4.62c-0.78-1.016-1.999-1.523-3.656-1.523
		c-2.21,0-3.831,0.718-4.863,2.157c-1.032,1.438-1.548,3.832-1.548,7.179v13.431h-5.728V83.445h4.485l0.804,3.534h0.293
		c0.748-1.284,1.832-2.275,3.254-2.974c1.422-0.699,2.986-1.048,4.692-1.048c4.144,0,6.89,1.414,8.239,4.241h0.39
		c0.796-1.333,1.918-2.373,3.364-3.12s3.104-1.121,4.973-1.121c3.218,0,5.562,0.813,7.032,2.438
		c1.471,1.625,2.206,4.103,2.206,7.435v17.575h-5.728V93.781c0-2.064-0.394-3.604-1.182-4.62c-0.788-1.016-2.011-1.523-3.669-1.523
		c-2.226,0-3.855,0.694-4.887,2.084c-1.032,1.389-1.548,3.523-1.548,6.399V110.405z"/>
	<path d="M139.311,76.303c0-1.024,0.28-1.812,0.841-2.364s1.361-0.829,2.401-0.829c1.008,0,1.792,0.276,2.352,0.829
		c0.561,0.553,0.841,1.341,0.841,2.364c0,0.975-0.28,1.742-0.841,2.303c-0.561,0.561-1.345,0.842-2.352,0.842
		c-1.04,0-1.84-0.281-2.401-0.842C139.592,78.046,139.311,77.278,139.311,76.303z M145.381,110.405h-5.728V83.445h5.728V110.405z"/>
	<path d="M176.984,96.876c0,4.404-1.129,7.841-3.388,10.311s-5.403,3.705-9.433,3.705c-2.519,0-4.745-0.569-6.679-1.706
		c-1.934-1.138-3.421-2.771-4.461-4.899c-1.04-2.129-1.56-4.599-1.56-7.41c0-4.371,1.121-7.784,3.364-10.238
		s5.403-3.681,9.482-3.681c3.9,0,6.988,1.255,9.263,3.765S176.984,92.619,176.984,96.876z M157.362,96.876
		c0,6.224,2.299,9.336,6.898,9.336c4.55,0,6.825-3.112,6.825-9.336c0-6.159-2.291-9.238-6.874-9.238
		c-2.405,0-4.148,0.796-5.229,2.389S157.362,93.903,157.362,96.876z"/>
	<path d="M206.397,110.405h-5.753V93.829c0-2.08-0.418-3.632-1.255-4.656c-0.837-1.024-2.165-1.536-3.985-1.536
		c-2.421,0-4.193,0.715-5.314,2.145c-1.121,1.43-1.682,3.827-1.682,7.191v13.431h-5.728V83.445h4.485l0.804,3.534h0.293
		c0.813-1.284,1.966-2.275,3.461-2.974c1.495-0.699,3.153-1.048,4.973-1.048c6.468,0,9.701,3.291,9.701,9.872V110.405z"/>
</g>
</svg>
